<mxfile host="app.diagrams.net" modified="2024-02-22T17:50:10.603Z" agent="Mozilla/5.0 (X11; Ubuntu; Linux x86_64; rv:123.0) Gecko/20100101 Firefox/123.0" etag="HWtB4StUEAo-jw9nvXeT" version="23.1.6" type="github">
  <diagram id="R2lEEEUBdFMjLlhIrx00" name="Page-1">
    <mxGraphModel dx="1364" dy="795" grid="1" gridSize="10" guides="1" tooltips="1" connect="1" arrows="1" fold="1" page="1" pageScale="1" pageWidth="850" pageHeight="1100" math="0" shadow="0" extFonts="Permanent Marker^https://fonts.googleapis.com/css?family=Permanent+Marker">
      <root>
        <mxCell id="0" />
        <mxCell id="1" parent="0" />
        <mxCell id="PPLUlzD65cUn4g1xmi8b-1" value="Project" style="whiteSpace=wrap;html=1;align=center;" vertex="1" parent="1">
          <mxGeometry x="160" y="200" width="100" height="40" as="geometry" />
        </mxCell>
        <mxCell id="PPLUlzD65cUn4g1xmi8b-2" value="Sensor" style="whiteSpace=wrap;html=1;align=center;" vertex="1" parent="1">
          <mxGeometry x="590" y="190" width="100" height="40" as="geometry" />
        </mxCell>
        <mxCell id="PPLUlzD65cUn4g1xmi8b-3" value="Variable" style="shape=ext;margin=3;double=1;whiteSpace=wrap;html=1;align=center;" vertex="1" parent="1">
          <mxGeometry x="80" y="410" width="100" height="40" as="geometry" />
        </mxCell>
        <mxCell id="PPLUlzD65cUn4g1xmi8b-4" value="Category" style="shape=ext;margin=3;double=1;whiteSpace=wrap;html=1;align=center;" vertex="1" parent="1">
          <mxGeometry x="240" y="420" width="100" height="40" as="geometry" />
        </mxCell>
        <mxCell id="PPLUlzD65cUn4g1xmi8b-5" value="name" style="ellipse;whiteSpace=wrap;html=1;align=center;fontStyle=4;" vertex="1" parent="1">
          <mxGeometry x="20" y="150" width="100" height="40" as="geometry" />
        </mxCell>
        <mxCell id="PPLUlzD65cUn4g1xmi8b-7" value="description" style="ellipse;whiteSpace=wrap;html=1;align=center;" vertex="1" parent="1">
          <mxGeometry x="80" y="80" width="100" height="40" as="geometry" />
        </mxCell>
        <mxCell id="PPLUlzD65cUn4g1xmi8b-8" value="start-date" style="ellipse;whiteSpace=wrap;html=1;align=center;" vertex="1" parent="1">
          <mxGeometry x="190" y="60" width="100" height="40" as="geometry" />
        </mxCell>
        <mxCell id="PPLUlzD65cUn4g1xmi8b-9" value="final-date" style="ellipse;whiteSpace=wrap;html=1;align=center;" vertex="1" parent="1">
          <mxGeometry x="320" y="110" width="100" height="40" as="geometry" />
        </mxCell>
        <mxCell id="PPLUlzD65cUn4g1xmi8b-10" value="manager" style="ellipse;whiteSpace=wrap;html=1;align=center;" vertex="1" parent="1">
          <mxGeometry x="325" y="200" width="100" height="40" as="geometry" />
        </mxCell>
        <mxCell id="PPLUlzD65cUn4g1xmi8b-11" value="occupied-area" style="ellipse;whiteSpace=wrap;html=1;align=center;" vertex="1" parent="1">
          <mxGeometry x="10" y="250" width="100" height="40" as="geometry" />
        </mxCell>
        <mxCell id="PPLUlzD65cUn4g1xmi8b-13" value="" style="endArrow=none;html=1;rounded=0;" edge="1" parent="1" source="PPLUlzD65cUn4g1xmi8b-11" target="PPLUlzD65cUn4g1xmi8b-1">
          <mxGeometry relative="1" as="geometry">
            <mxPoint x="340" y="410" as="sourcePoint" />
            <mxPoint x="500" y="410" as="targetPoint" />
          </mxGeometry>
        </mxCell>
        <mxCell id="PPLUlzD65cUn4g1xmi8b-14" value="" style="endArrow=none;html=1;rounded=0;" edge="1" parent="1" source="PPLUlzD65cUn4g1xmi8b-5" target="PPLUlzD65cUn4g1xmi8b-1">
          <mxGeometry relative="1" as="geometry">
            <mxPoint x="90" y="170" as="sourcePoint" />
            <mxPoint x="250" y="170" as="targetPoint" />
          </mxGeometry>
        </mxCell>
        <mxCell id="PPLUlzD65cUn4g1xmi8b-15" value="" style="endArrow=none;html=1;rounded=0;" edge="1" parent="1" source="PPLUlzD65cUn4g1xmi8b-7" target="PPLUlzD65cUn4g1xmi8b-1">
          <mxGeometry relative="1" as="geometry">
            <mxPoint x="340" y="410" as="sourcePoint" />
            <mxPoint x="500" y="410" as="targetPoint" />
          </mxGeometry>
        </mxCell>
        <mxCell id="PPLUlzD65cUn4g1xmi8b-16" value="" style="endArrow=none;html=1;rounded=0;" edge="1" parent="1" source="PPLUlzD65cUn4g1xmi8b-8" target="PPLUlzD65cUn4g1xmi8b-1">
          <mxGeometry relative="1" as="geometry">
            <mxPoint x="340" y="410" as="sourcePoint" />
            <mxPoint x="500" y="410" as="targetPoint" />
          </mxGeometry>
        </mxCell>
        <mxCell id="PPLUlzD65cUn4g1xmi8b-17" value="" style="endArrow=none;html=1;rounded=0;" edge="1" parent="1" source="PPLUlzD65cUn4g1xmi8b-9" target="PPLUlzD65cUn4g1xmi8b-1">
          <mxGeometry relative="1" as="geometry">
            <mxPoint x="340" y="410" as="sourcePoint" />
            <mxPoint x="500" y="410" as="targetPoint" />
          </mxGeometry>
        </mxCell>
        <mxCell id="PPLUlzD65cUn4g1xmi8b-18" value="" style="endArrow=none;html=1;rounded=0;" edge="1" parent="1" source="PPLUlzD65cUn4g1xmi8b-10" target="PPLUlzD65cUn4g1xmi8b-1">
          <mxGeometry relative="1" as="geometry">
            <mxPoint x="340" y="410" as="sourcePoint" />
            <mxPoint x="500" y="410" as="targetPoint" />
          </mxGeometry>
        </mxCell>
        <mxCell id="PPLUlzD65cUn4g1xmi8b-19" value="id" style="ellipse;whiteSpace=wrap;html=1;align=center;fontStyle=4;" vertex="1" parent="1">
          <mxGeometry x="460" y="130" width="100" height="50" as="geometry" />
        </mxCell>
        <mxCell id="PPLUlzD65cUn4g1xmi8b-20" value="name" style="ellipse;whiteSpace=wrap;html=1;align=center;" vertex="1" parent="1">
          <mxGeometry x="560" y="90" width="100" height="40" as="geometry" />
        </mxCell>
        <mxCell id="PPLUlzD65cUn4g1xmi8b-21" value="brand" style="ellipse;whiteSpace=wrap;html=1;align=center;" vertex="1" parent="1">
          <mxGeometry x="690" y="110" width="100" height="40" as="geometry" />
        </mxCell>
        <mxCell id="PPLUlzD65cUn4g1xmi8b-22" value="status" style="ellipse;whiteSpace=wrap;html=1;align=center;" vertex="1" parent="1">
          <mxGeometry x="450" y="200" width="100" height="40" as="geometry" />
        </mxCell>
        <mxCell id="PPLUlzD65cUn4g1xmi8b-23" value="measurement" style="ellipse;whiteSpace=wrap;html=1;align=center;" vertex="1" parent="1">
          <mxGeometry x="710" y="190" width="100" height="40" as="geometry" />
        </mxCell>
        <mxCell id="PPLUlzD65cUn4g1xmi8b-24" value="" style="endArrow=none;html=1;rounded=0;" edge="1" parent="1" source="PPLUlzD65cUn4g1xmi8b-22" target="PPLUlzD65cUn4g1xmi8b-2">
          <mxGeometry relative="1" as="geometry">
            <mxPoint x="340" y="410" as="sourcePoint" />
            <mxPoint x="500" y="410" as="targetPoint" />
          </mxGeometry>
        </mxCell>
        <mxCell id="PPLUlzD65cUn4g1xmi8b-25" value="" style="endArrow=none;html=1;rounded=0;" edge="1" parent="1" target="PPLUlzD65cUn4g1xmi8b-2">
          <mxGeometry relative="1" as="geometry">
            <mxPoint x="530" y="160" as="sourcePoint" />
            <mxPoint x="690" y="160" as="targetPoint" />
          </mxGeometry>
        </mxCell>
        <mxCell id="PPLUlzD65cUn4g1xmi8b-26" value="" style="endArrow=none;html=1;rounded=0;" edge="1" parent="1" target="PPLUlzD65cUn4g1xmi8b-2">
          <mxGeometry relative="1" as="geometry">
            <mxPoint x="600" y="110" as="sourcePoint" />
            <mxPoint x="760" y="110" as="targetPoint" />
          </mxGeometry>
        </mxCell>
        <mxCell id="PPLUlzD65cUn4g1xmi8b-27" value="" style="endArrow=none;html=1;rounded=0;" edge="1" parent="1" source="PPLUlzD65cUn4g1xmi8b-21" target="PPLUlzD65cUn4g1xmi8b-2">
          <mxGeometry relative="1" as="geometry">
            <mxPoint x="740" y="130" as="sourcePoint" />
            <mxPoint x="900" y="130" as="targetPoint" />
          </mxGeometry>
        </mxCell>
        <mxCell id="PPLUlzD65cUn4g1xmi8b-28" value="" style="endArrow=none;html=1;rounded=0;" edge="1" parent="1" source="PPLUlzD65cUn4g1xmi8b-23" target="PPLUlzD65cUn4g1xmi8b-2">
          <mxGeometry relative="1" as="geometry">
            <mxPoint x="760" y="200" as="sourcePoint" />
            <mxPoint x="920" y="200" as="targetPoint" />
          </mxGeometry>
        </mxCell>
        <mxCell id="PPLUlzD65cUn4g1xmi8b-29" value="location" style="ellipse;shape=doubleEllipse;margin=3;whiteSpace=wrap;html=1;align=center;" vertex="1" parent="1">
          <mxGeometry x="530" y="290" width="100" height="40" as="geometry" />
        </mxCell>
        <mxCell id="PPLUlzD65cUn4g1xmi8b-30" value="" style="endArrow=none;html=1;rounded=0;" edge="1" parent="1" source="PPLUlzD65cUn4g1xmi8b-2" target="PPLUlzD65cUn4g1xmi8b-29">
          <mxGeometry relative="1" as="geometry">
            <mxPoint x="460" y="320" as="sourcePoint" />
            <mxPoint x="620" y="320" as="targetPoint" />
          </mxGeometry>
        </mxCell>
        <mxCell id="PPLUlzD65cUn4g1xmi8b-31" value="coordinates" style="ellipse;whiteSpace=wrap;html=1;align=center;" vertex="1" parent="1">
          <mxGeometry x="320" y="270" width="100" height="40" as="geometry" />
        </mxCell>
        <mxCell id="PPLUlzD65cUn4g1xmi8b-32" value="description" style="ellipse;whiteSpace=wrap;html=1;align=center;" vertex="1" parent="1">
          <mxGeometry x="370" y="330" width="100" height="40" as="geometry" />
        </mxCell>
        <mxCell id="PPLUlzD65cUn4g1xmi8b-33" value="height" style="ellipse;whiteSpace=wrap;html=1;align=center;" vertex="1" parent="1">
          <mxGeometry x="550" y="370" width="100" height="40" as="geometry" />
        </mxCell>
        <mxCell id="PPLUlzD65cUn4g1xmi8b-34" value="depth" style="ellipse;whiteSpace=wrap;html=1;align=center;" vertex="1" parent="1">
          <mxGeometry x="450" y="360" width="100" height="40" as="geometry" />
        </mxCell>
        <mxCell id="PPLUlzD65cUn4g1xmi8b-35" value="" style="endArrow=none;html=1;rounded=0;" edge="1" parent="1" source="PPLUlzD65cUn4g1xmi8b-31" target="PPLUlzD65cUn4g1xmi8b-29">
          <mxGeometry relative="1" as="geometry">
            <mxPoint x="450" y="340" as="sourcePoint" />
            <mxPoint x="610" y="340" as="targetPoint" />
          </mxGeometry>
        </mxCell>
        <mxCell id="PPLUlzD65cUn4g1xmi8b-36" value="" style="endArrow=none;html=1;rounded=0;" edge="1" parent="1" source="PPLUlzD65cUn4g1xmi8b-32" target="PPLUlzD65cUn4g1xmi8b-29">
          <mxGeometry relative="1" as="geometry">
            <mxPoint x="520" y="380" as="sourcePoint" />
            <mxPoint x="680" y="380" as="targetPoint" />
          </mxGeometry>
        </mxCell>
        <mxCell id="PPLUlzD65cUn4g1xmi8b-37" value="" style="endArrow=none;html=1;rounded=0;" edge="1" parent="1" source="PPLUlzD65cUn4g1xmi8b-33" target="PPLUlzD65cUn4g1xmi8b-29">
          <mxGeometry relative="1" as="geometry">
            <mxPoint x="640" y="380" as="sourcePoint" />
            <mxPoint x="800" y="380" as="targetPoint" />
          </mxGeometry>
        </mxCell>
        <mxCell id="PPLUlzD65cUn4g1xmi8b-38" value="" style="endArrow=none;html=1;rounded=0;" edge="1" parent="1" source="PPLUlzD65cUn4g1xmi8b-34" target="PPLUlzD65cUn4g1xmi8b-29">
          <mxGeometry relative="1" as="geometry">
            <mxPoint x="740" y="330" as="sourcePoint" />
            <mxPoint x="900" y="330" as="targetPoint" />
          </mxGeometry>
        </mxCell>
        <mxCell id="PPLUlzD65cUn4g1xmi8b-39" value="start-date" style="ellipse;whiteSpace=wrap;html=1;align=center;" vertex="1" parent="1">
          <mxGeometry x="650" y="360" width="100" height="40" as="geometry" />
        </mxCell>
        <mxCell id="PPLUlzD65cUn4g1xmi8b-40" value="" style="endArrow=none;html=1;rounded=0;" edge="1" parent="1" source="PPLUlzD65cUn4g1xmi8b-39" target="PPLUlzD65cUn4g1xmi8b-29">
          <mxGeometry relative="1" as="geometry">
            <mxPoint x="730" y="350" as="sourcePoint" />
            <mxPoint x="890" y="350" as="targetPoint" />
          </mxGeometry>
        </mxCell>
        <mxCell id="PPLUlzD65cUn4g1xmi8b-42" value="final-date" style="ellipse;whiteSpace=wrap;html=1;align=center;" vertex="1" parent="1">
          <mxGeometry x="680" y="300" width="100" height="40" as="geometry" />
        </mxCell>
        <mxCell id="PPLUlzD65cUn4g1xmi8b-43" value="" style="endArrow=none;html=1;rounded=0;" edge="1" parent="1" source="PPLUlzD65cUn4g1xmi8b-42" target="PPLUlzD65cUn4g1xmi8b-29">
          <mxGeometry relative="1" as="geometry">
            <mxPoint x="710" y="320" as="sourcePoint" />
            <mxPoint x="870" y="320" as="targetPoint" />
          </mxGeometry>
        </mxCell>
      </root>
    </mxGraphModel>
  </diagram>
</mxfile>
